<?xml version="1.0" encoding="UTF-8"?>
<svg width="22px" height="24px" viewBox="0 0 22 24" version="1.1" xmlns="http://www.w3.org/2000/svg" xmlns:xlink="http://www.w3.org/1999/xlink">
    <!-- Generator: Sketch 52.6 (67491) - http://www.bohemiancoding.com/sketch -->
    <title>Calendar Small</title>
    <desc>Created with Sketch.</desc>
    <g id="Calendar-Small" stroke="none" stroke-width="1" fill="none" fill-rule="evenodd">
        <rect id="Rectangle" stroke="#000000" x="0.5" y="3.5" width="21" height="20" rx="2"></rect>
        <path d="M0.5,7.5 L21.5,7.5 L21.5,5 C21.5,4.17157288 20.8284271,3.5 20,3.5 L2,3.5 C1.17157288,3.5 0.5,4.17157288 0.5,5 L0.5,7.5 Z" id="Rectangle" stroke="#000000" fill="#F7CC4C"></path>
        <rect id="Rectangle" stroke="#000000" fill="#FEFBF3" x="5.5" y="0.5" width="2" height="5" rx="1"></rect>
        <rect id="Rectangle" stroke="#000000" fill="#FEFBF3" x="14.5" y="0.5" width="2" height="5" rx="1"></rect>
        <rect id="Rectangle" stroke="#000000" x="3.5" y="11.5" width="3" height="3" rx="1"></rect>
        <rect id="Rectangle" stroke="#000000" x="9.5" y="11.5" width="3" height="3" rx="1"></rect>
        <rect id="Rectangle" stroke="#000000" x="15.5" y="11.5" width="3" height="3" rx="1"></rect>
        <rect id="Rectangle" stroke="#000000" x="3.5" y="17.5" width="3" height="3" rx="1"></rect>
        <rect id="Rectangle" stroke="#000000" x="9.5" y="17.5" width="3" height="3" rx="1"></rect>
        <rect id="Rectangle" stroke="#000000" x="15.5" y="17.5" width="3" height="3" rx="1"></rect>
    </g>
</svg>