<?xml version="1.0" encoding="UTF-8"?>
<svg width="26px" height="21px" viewBox="0 0 26 21" version="1.1" xmlns="http://www.w3.org/2000/svg" xmlns:xlink="http://www.w3.org/1999/xlink">
    <!-- Generator: Sketch 52.6 (67491) - http://www.bohemiancoding.com/sketch -->
    <title>Hands</title>
    <desc>Created with Sketch.</desc>
    <g id="Hands" stroke="none" stroke-width="1" fill="none" fill-rule="evenodd">
        <path d="M13.0000001,11.7146713 C13.0000376,8.02448343 13.0081407,2.8897335 13.0081407,1.45665361 C13.0081407,-0.697949781 15.1176879,-0.127191613 15.3097705,1.02301874 C15.3644466,3.09847747 17.6920486,11.9151142 20.3876842,14.0181128 C20.5003604,15.9554167 17.9769546,19.3463789 16.0706293,17.6709529 C15.8101862,16.950239 13.1641523,16.3021387 13.0081407,15.5331121 C13.0020727,15.0693696 13.0000252,13.6044713 13.0000002,11.7743101 C12.9999748,13.6044713 12.9979273,15.0693696 12.9918593,15.5331121 C12.8358477,16.3021387 10.1898138,16.950239 9.92937075,17.6709529 C8.0230454,19.3463789 5.49963956,15.9554167 5.61231578,14.0181128 C8.30795138,11.9151142 10.6355534,3.09847747 10.6902295,1.02301874 C10.8823121,-0.127191613 12.9918593,-0.697949781 12.9918593,1.45665361 C12.9918593,2.8897335 12.9999624,8.02448343 12.9999999,11.7146713 Z" id="Combined-Shape" fill="#FFDF80" fill-rule="nonzero"></path>
        <path d="M0,21 C0.607001822,19.8139173 2.7433243,16.9238276 5.60002117,14 C6.70965341,17.6417959 8.17631302,18.8084626 10,17.5 L8.52839678,21 C3.35233448,21 0.509535557,21 0,21 Z M26,21 C25.4904644,21 22.6476655,21 17.4716032,21 L16,17.5 C17.823687,18.8084626 19.2903466,17.6417959 20.3999788,14 C23.2566757,16.9238276 25.3929982,19.8139173 26,21 Z" id="Combined-Shape" fill="#000000"></path>
        <path d="M6.63378956,14.4384462 C6.73899747,15.0795684 7.16326163,15.9179088 7.73110344,16.5026304 C8.30288629,17.0914103 8.76428766,17.2423436 9.14186838,17.0139158 C9.38873461,16.6200978 9.80793044,16.3503616 10.5192969,15.9887522 C10.6531524,15.9207093 10.7308906,15.8824905 11.0157152,15.7436403 C11.5039892,15.5056097 11.7306709,15.3871106 11.922222,15.2628548 C11.9490318,15.2454637 11.9731971,15.2290681 11.9946237,15.213882 C12.0004743,14.2727836 12.0012706,11.9276966 11.9984197,8.38029019 C11.9977772,7.58086764 11.9969766,6.74595589 11.9959302,5.75368823 C11.9944039,4.34158714 11.9935623,3.57041118 11.9931318,3.15129709 C11.9922692,2.31150553 11.9918593,1.78553047 11.9918593,1.45665361 C11.9918593,1.01462598 11.9782965,0.99898663 11.9441458,1.00004822 C11.8452829,1.00312141 11.7217975,1.09372173 11.6860068,1.16165874 C11.5465601,4.45015124 9.02356416,11.9837834 6.63378956,14.4384462 Z M10.6902295,1.02301874 C10.8823121,-0.127191613 12.9918593,-0.697949781 12.9918593,1.45665361 C12.9918593,3.61125701 13.0101758,14.1332806 12.9918593,15.5331121 C12.8358477,16.3021387 10.1898138,16.950239 9.92937075,17.6709529 C8.0230454,19.3463789 5.49963956,15.9554167 5.61231578,14.0181128 C8.30795138,11.9151142 10.6355534,3.09847747 10.6902295,1.02301874 Z" id="Path-6" fill="#F7CC4C" fill-rule="nonzero"></path>
        <path d="M14.0251183,14.4384462 C14.1303263,15.0795684 14.5545904,15.9179088 15.1224322,16.5026304 C15.6942151,17.0914103 16.1556164,17.2423436 16.5331972,17.0139158 C16.7800634,16.6200978 17.1992592,16.3503616 17.9106257,15.9887522 C18.0444812,15.9207093 18.1222194,15.8824905 18.407044,15.7436403 C18.895318,15.5056097 19.1219997,15.3871106 19.3135508,15.2628548 C19.3403606,15.2454637 19.3645259,15.2290681 19.3859525,15.213882 C19.3918031,14.2727836 19.3925994,11.9276966 19.3897485,8.38029019 C19.389106,7.58086764 19.3883054,6.74595589 19.387259,5.75368823 C19.3857327,4.34158714 19.3848911,3.57041118 19.3844606,3.15129709 C19.383598,2.31150553 19.3831881,1.78553047 19.3831881,1.45665361 C19.3831881,1.01462598 19.3696253,0.99898663 19.3354746,1.00004822 C19.2366117,1.00312141 19.1131262,1.09372173 19.0773355,1.16165874 C18.9378889,4.45015124 16.4148929,11.9837834 14.0251183,14.4384462 Z M18.0815583,1.02301874 C18.2736409,-0.127191613 20.3831881,-0.697949781 20.3831881,1.45665361 C20.3831881,3.61125701 20.4015046,14.1332806 20.3831881,15.5331121 C20.2271764,16.3021387 17.5811426,16.950239 17.3206995,17.6709529 C15.4143742,19.3463789 12.8909683,15.9554167 13.0036446,14.0181128 C15.6992802,11.9151142 18.0268822,3.09847747 18.0815583,1.02301874 Z" id="Path-6" fill="#F7CC4C" fill-rule="nonzero" transform="translate(16.695664, 9.061009) scale(-1, 1) translate(-16.695664, -9.061009) "></path>
    </g>
</svg>