<?xml version="1.0" encoding="UTF-8"?>
<svg width="22px" height="24px" viewBox="0 0 22 24" version="1.1" xmlns="http://www.w3.org/2000/svg" xmlns:xlink="http://www.w3.org/1999/xlink">
    <!-- Generator: Sketch 52.6 (67491) - http://www.bohemiancoding.com/sketch -->
    <title>Press</title>
    <desc>Created with Sketch.</desc>
    <g id="Press" stroke="none" stroke-width="1" fill="none" fill-rule="evenodd">
        <path d="M19.4515016,23.5 C8.5465664,23.5 2.75406515,23.5 2.07399784,23.5 C1.05389686,23.5 0.513799744,22.6731313 0.513799744,21.8927807 C0.513799744,16.217092 0.513799744,9.08616512 0.513799744,0.5 L17.5,0.5 L17.5,8" id="Path-9" stroke="#000000"></path>
        <path d="M21.5,8.2874954 C21.5,14.1521586 21.5,18.6785645 21.5,21.8667131 C21.5,22.6349906 20.7553926,23.4857582 19.5,23.4857582 L19.5,22.85003 C18.6290793,22.85003 17.5,22.2411864 17.5,20.6697948 C17.5,17.3373056 17.5,13.2098724 17.5,8.2874954 L21.5,8.2874954 Z" id="Path-2" stroke="#000000" fill="#F7CC4C"></path>
        <path d="M4.5,4.5 L13.5,4.5" id="Line-3" stroke="#000000" stroke-linecap="round"></path>
        <path d="M4.5,13.5 L13.5,13.5" id="Line-3-Copy" stroke="#000000" stroke-linecap="round"></path>
        <path d="M4.5,16.5 L11.5,16.5" id="Line-3-Copy-2" stroke="#000000" stroke-linecap="round"></path>
        <path d="M4.5,19.5 L11.5,19.5" id="Line-3-Copy-3" stroke="#000000" stroke-linecap="round"></path>
        <path d="M11.5,7.5 L13.5,7.5" id="Line-4" stroke="#000000" stroke-linecap="round" stroke-linejoin="round"></path>
        <path d="M11.5,10.5 L13.5,10.5" id="Line-4-Copy" stroke="#000000" stroke-linecap="round" stroke-linejoin="round"></path>
        <rect id="Rectangle" stroke="#000000" x="4.5" y="7.5" width="4" height="3" rx="1"></rect>
    </g>
</svg>